<?xml version="1.0" encoding="UTF-8" standalone="no"?>
<svg width="480" height="480" viewBox="0 0 1024 1024"
  xmlns:xlink="http://www.w3.org/1999/xlink"
  xmlns="http://www.w3.org/2000/svg"
  xmlns:svg="http://www.w3.org/2000/svg">
  <defs
     id="defs68">
    <linearGradient
       id="greenGradient">
      <stop
         style="stop-color:#65c241;stop-opacity:1;"
         offset="0"
         id="stop10269" />
      <stop
         style="stop-color:#009339;stop-opacity:1;"
         offset="1"
         id="stop10271" />
    </linearGradient>
    <linearGradient
       id="redGradient">
      <stop
         style="stop-color:#fb0000;stop-opacity:1;"
         offset="0"
         id="stop8809" />
      <stop
         style="stop-color:#d00000;stop-opacity:1;"
         offset="1"
         id="stop8811" />
    </linearGradient>
    <linearGradient
       id="yellowGradient">
      <stop
         style="stop-color:#f4c228;stop-opacity:1;"
         offset="0"
         id="stop7323" />
      <stop
         style="stop-color:#f4b028;stop-opacity:1;"
         offset="1"
         id="stop7325" />
    </linearGradient>
    <linearGradient
       id="blueGradient">
      <stop
         style="stop-color:#288cdf;stop-opacity:1;"
         offset="0"
         id="stop6567" />
      <stop
         style="stop-color:#125db7;stop-opacity:1;"
         offset="1"
         id="stop6569" />
    </linearGradient>
    <linearGradient
       id="blueGradient2">
      <stop
         style="stop-color:#288cdf;stop-opacity:1;"
         offset="0"
         id="stop2911" />
      <stop
         style="stop-color:#125db7;stop-opacity:1;"
         offset="1"
         id="stop2913" />
    </linearGradient>
    <rect
       x="41.197151"
       y="681.92126"
       width="1231.578"
       height="262.36081"
       id="rect470" />
    <rect
       x="28.187524"
       y="661.32268"
       width="933.44071"
       height="205.98575"
       id="rect385" />
    <linearGradient
       xlink:href="#blueGradient2"
       id="linearGradient2917"
       x1="293.313"
       y1="192.2315"
       x2="461.193"
       y2="192.2315"
       gradientUnits="userSpaceOnUse" />
    <linearGradient
       xlink:href="#blueGradient"
       id="linearGradient6573"
       x1="250.362"
       y1="347.161"
       x2="388.481"
       y2="347.161"
       gradientUnits="userSpaceOnUse" />
    <linearGradient
       xlink:href="#yellowGradient"
       id="linearGradient7329"
       x1="254.624"
       y1="503.1095"
       x2="505.132"
       y2="503.1095"
       gradientUnits="userSpaceOnUse" />
    <linearGradient
       xlink:href="#redGradient"
       id="linearGradient8815"
       x1="499.943"
       y1="198.0585"
       x2="784.469"
       y2="198.0585"
       gradientUnits="userSpaceOnUse" />
    <linearGradient
       xlink:href="#greenGradient"
       id="linearGradient10275"
       x1="448.002"
       y1="415.3795"
       x2="785.091"
       y2="415.3795"
       gradientUnits="userSpaceOnUse" />
  </defs>
  <path
     d="m 642.594,234.773 h -10 -10 -10 -4.87 l -9.996,0.252 -9.997,0.253 -9.997,0.252 -9.207,0.232 -9.736,2.286 -9.735,2.286 -0.437,0.102 -9.435,3.315 -8.866,3.115 -8.649,5.02 -8.649,5.02 -0.853,0.495 h -10e-4 l -0.333,0.232 -7.675,6.411 -0.4,0.334 -8.172,5.765 -6.199,4.373 -7.644,6.448 -3.031,2.556 -7.415,6.709 -3.855,3.488 -6.638,7.479 -1.83,2.062 -6.049,7.963 -0.928,1.221 -3.995,7.871 v 7.991 l 4.283,9.036 0.607,1.28 5.844,7.991 7.96,6.053 1.998,1.52 8.09,5.878 8.091,5.878 6.718,4.881 7.785,6.277 7.785,6.276 1.664,1.341 7.566,6.539 7.566,6.538 0.67,0.579 7.043,7.099 7.042,7.1 0.704,0.709 5.47,8.371 5.47,8.371 1.88,2.877 4.756,8.796 3.175,5.873 2.461,9.693 1.475,5.811 0.098,10 0.081,8.307 -0.352,9.994 -0.351,9.994 -0.013,0.347 -3.029,9.53 -3.03,9.53 -0.083,0.26 -4.397,8.982 -4.07,8.312 -5.61,8.278 -4.289,6.331 -6.544,7.562 -3.415,3.947 -7.071,7.071 -3.483,3.484 -8.01,5.988 -4.275,3.195 -8.368,5.475 -2.842,1.86 -9.065,4.223 -0.381,0.177 -0.01,0.068 10,-0.043 10,-0.044 10,-0.043 10,-0.043 10,-0.044 10,-0.043 10,-0.044 10,-0.043 10,-0.043 10,-0.044 9.999,-0.043 10,-0.043 10,-0.044 10,-0.043 10,-0.044 10,-0.043 10,-0.043 10,-0.044 10,-0.043 10,-0.044 9.999,-0.043 10,-0.043 10,-0.044 10,-0.043 10,-0.043 11.514,-0.05 5.235,-0.07 8.958,-4.445 2.323,-1.153 7.939,-6.08 1.592,-1.219 6.183,-6.698 3.692,-7.814 2.061,-7.728 -0.024,-10 -0.024,-10 -0.023,-10 -0.024,-10 -0.024,-10 -0.024,-10 -0.023,-10 -0.024,-10 -0.024,-10 -0.024,-10 -0.023,-10 -0.024,-10 -0.024,-10 -0.024,-10 -0.023,-10 -0.024,-9.999 -0.024,-10 -0.024,-10 -0.023,-10 -0.024,-10 -0.024,-10 -0.024,-10 -0.023,-10 -0.024,-10 -0.024,-10 -0.023,-9.645 -0.028,-0.047 -0.002,-0.004 -5.721,-7.209 -7.031,-7.11 -2.972,-3.004 -7.764,-6.303 -2.747,-2.229 -8.311,-5.561 -8.312,-5.56 -0.935,-0.626 -8.905,-4.552 -8.904,-4.551 -4.449,-2.273 -9.476,-3.194 -9.477,-3.193 -3.799,-1.28 -9.754,-2.204 -9.754,-2.204 -6.211,-1.404 -9.951,-0.99 -9.951,-0.991 -7.426,-0.739"
     fill="#129a39"
     id="greenBottomBorder"
     style="display:inline;fill-opacity:1;fill:url(#linearGradient10275)" />
  <path
     d="m 758.252,99.409 -8.244,-3.263 -10,0.02 -10,0.02 -10,0.019 -10,0.02 -10,0.019 -10,0.02 -10,0.02 -10,0.019 -9.999,0.02 -10,0.019 -10,0.02 -10,0.02 -10,0.019 -10,0.02 -10,0.019 -10,0.02 -10,0.02 -10,0.019 -10,0.02 -10,0.019 -10,0.02 -10,0.02 -10,0.019 -10,0.02 -10.054,0.02 -0.012,0.067 7.548,6.09 6.738,7.484 5.557,8.314 2.016,3.016 4.396,8.982 2.462,5.032 3.674,9.3 2.14,5.417 2.713,9.625 0.954,3.386 0.831,9.966 0.362,4.346 -0.245,9.997 -0.172,7.058 -2.096,9.778 -0.409,1.909 -2.766,9.61 -0.633,2.197 -3.635,9.316 -2.089,5.354 -5.137,8.58 -2.353,3.931 -5.364,8.439 -2.269,3.569 10e-4,0.001 v 0 l 8.649,-5.02 8.649,-5.019 0.853,-0.496 9.435,-3.315 8.866,-3.115 9.735,-2.285 9.735,-2.286 0.438,-0.103 9.996,-0.252 9.997,-0.252 9.997,-0.253 9.207,-0.232 h 10 10 10 4.87 l 9.951,0.991 9.951,0.99 7.426,0.739 9.754,2.204 9.754,2.204 6.211,1.404 9.477,3.193 9.476,3.193 3.799,1.281 8.905,4.551 8.904,4.551 4.449,2.274 8.311,5.56 8.312,5.561 0.935,0.626 7.764,6.302 2.747,2.23 7.032,7.11 2.971,3.004 5.692,7.23 0.031,-0.017 0.023,-0.013 -0.083,-10 -0.082,-9.999 -0.082,-10 -0.083,-9.999 -0.082,-10 -0.082,-10 -0.083,-10 -0.082,-9.999 -0.082,-10 -0.083,-9.999 -0.082,-10 -0.082,-10 -0.083,-9.999 -0.082,-10 -0.083,-10 -0.082,-9.999 -0.083,-10.071 -2.49,-7.892 -4.294,-6.86 -5.152,-6.011 -5.238,-4.981 -7.642,-4.723"
     fill="#e20000"
     id="redTopBorder"
     style="display:inline;fill-opacity:1;fill:url(#linearGradient8815)" />
  <path
     d="m 424.139,416.652 -9.996,-0.255 -9.997,-0.254 -5.256,-0.134 -9.995,0.329 -9.995,0.329 -10.058,0.331 -9.939,1.102 -5.109,0.567 -9.786,2.06 -9.786,2.059 -5.456,1.149 -9.474,3.2 -7.33,2.475 -9.173,3.983 -6.778,2.942 -7.758,6.31 -7.758,6.31 -3.032,2.466 -7.051,7.091 -3.657,3.679 -5.498,8.353 -1.142,1.737 -2.918,9.565 -0.718,2.355 -1.24,9.923 -0.615,4.915 0.775,9.97 0.462,5.944 2.208,9.753 0.76,3.354 5.53,8.332 3.991,6.012 6.37,7.708 5.995,7.254 8.151,5.793 6.811,4.841 9.001,4.357 9.001,4.357 1.411,0.684 9.635,2.679 9.037,2.514 9.855,1.695 9.856,1.694 7.616,1.31 9.94,1.099 9.939,1.099 4.728,0.522 9.991,-0.414 9.992,-0.413 0.914,-0.038 9.864,-1.644 2.007,-0.335 9.757,-2.188 9.758,-2.189 6.946,-1.558 9.385,-3.453 3.723,-1.37 8.77,-4.804 5.45,-2.986 8.118,-5.839 5.978,-4.3 6.236,-7.817 2.543,-3.188 4.715,-8.819 2.247,-4.202 2.198,-9.755 0.596,-2.647 0.164,-9.999 0.084,-5.087 -1.839,-9.829 -1.747,-9.337 -4.852,-8.744 -4.851,-8.744 -0.931,-1.678 -6.991,-7.15 -3.891,-3.979 -8.176,-5.757 -8.176,-5.758 -1.206,-0.85 -8.006,-5.992 -8.007,-5.991 -8.006,-5.992 -8.006,-5.992 -6.308,-4.72"
     fill="#f4b728"
     id="yellowBottomG"
     style="display:inline;fill-opacity:1;fill:url(#linearGradient7329)" />
  <path
     d="m 258.598,284.231 -7.225,-6.914 -0.935,-0.896 -0.076,0.072 0.021,9.999 0.022,10 0.022,10 0.021,10 0.022,10 0.022,10 0.021,10 0.022,10 0.021,10 0.022,10 0.003,1.372 -0.018,10 -0.019,10 -0.018,10 -0.009,5.192 1.073,4.058 1.36,0.787 6.01,-3.292 9.299,-3.678 6.802,-2.69 9.68,-2.51 9.641,-2.5 9.761,-2.171 9.762,-2.171 5.343,-1.189 9.895,-1.448 9.895,-1.447 9.894,-1.448 4.962,-0.726 9.887,-1.5 9.374,-1.422 9.869,-1.614 2.892,-0.473 2.565,-1.729 -0.337,-1.895 -5.049,-5.77 -6.921,-7.218 -0.292,-0.305 -4.511,-8.924 -0.229,-0.453 -3.162,-9.486 -0.444,-1.333 -0.385,-9.993 -0.028,-0.724 1.376,-9.905 0.252,-1.821 3.215,-8.058 3.689,-7.028 -2.473,-1.442 -6.285,1.442 -9.982,0.599 -0.323,0.02 -9.991,-0.414 -7.423,-0.308 -9.963,-0.859 -7.967,-0.686 -9.681,-2.506 -7.836,-2.028 -9.366,-3.504 -5.781,-2.164 -8.854,-4.649 -5.47,-2.873 -8.579,-5.137 -7.083,-4.24"
     fill="#f4b728"
     id="yellowMiddleG"
     style="display:inline;fill-opacity:1;fill:url(#linearGradient6573)" />
  <path
     d="m 408.074,96.53 -0.25,-0.124 -10,0.003 -10,0.004 -10,0.003 -10,0.003 -10,0.003 -10,0.004 -10,0.003 -10,0.003 -7.438,0.003 -5.063,3.299 -6.059,8.038 -5.343,8.453 -2.942,4.654 -3.199,9.474 -3.231,9.568 -0.761,9.971 -0.475,6.228 0.263,9.996 0.232,8.799 1.754,9.845 0.471,2.644 2.949,9.555 2.95,9.555 0.284,0.921 3.303,9.439 2.756,7.873 4.665,8.845 1.27,2.407 5.27,8.499 2.397,3.866 5.661,8.244 1.387,2.02 7.071,7.071 2.203,2.202 7.871,6.168 4.123,3.23 9.097,4.153 2.279,1.04 9.388,3.446 4.09,1.501 9.992,0.406 5.217,0.212 9.979,-0.648 9.064,-0.589 9.412,-3.378 5.055,-1.815 8.802,-4.747 2.203,-1.188 7.62,-6.477 2.272,-1.932 6.202,-7.844 0.395,-0.5 5.007,-8.657 3.621,-6.26 0.467,-9.99 0.467,-9.989 0.371,-7.952 -0.438,-9.99 -0.439,-9.991 -0.072,-1.658 -1.047,-9.945 -0.437,-4.151 -3.133,-9.497 -0.824,-2.498 -3.417,-9.398 -0.045,-0.123 -4.322,-9.018 -1.366,-2.853 -4.415,-8.972 -3.252,-6.608 -5.582,-8.297 -3.568,-5.304 -6.801,-7.332 -2.72,-2.932 -7.15,-6.992 -4.091,-4.002"
     fill="#2481d4"
     id="blueTopG"
     style="display:inline;fill-opacity:1;fill:url(#linearGradient2917)" />
  <text
     xml:space="preserve"
     style="font-style:normal;font-variant:normal;font-weight:normal;font-stretch:normal;font-size:68.9357px;font-family:'Nimbus Sans';opacity:0.25;fill:#656565;stroke-width:0.718081;fill-opacity:1"
     x="73.664993"
     y="865.5094"
     id="testingFramework"
     transform="scale(0.91459342,1.093382)">
    <tspan
       id="tspan607"
       x="73.664993"
       y="865.5094"
       style="font-size:68.9357px;stroke-width:0.718081;fill:#656565;fill-opacity:1">Google C++ Testing Framework</tspan>
  </text>
  <text
     xml:space="preserve"
     style="font-style:normal;font-variant:normal;font-weight:normal;font-stretch:normal;font-size:202.307px;font-family:'Nimbus Sans';opacity:0.25;fill:#656565;stroke-width:1.00484;fill-opacity:1"
     x="65.61911"
     y="782.24005"
     id="googleTest"
     transform="scale(0.9549259,1.0472017)">
    <tspan
       id="tspan611"
       x="65.61911"
       y="782.24005"
       style="font-size:202.307px;stroke-width:1.00484;fill:#656565;fill-opacity:1">googletest</tspan>
  </text>
</svg>
