<?xml version="1.0" encoding="UTF-8"?>
<svg xmlns="http://www.w3.org/2000/svg" xmlns:xlink="http://www.w3.org/1999/xlink" id="svg" version="1.1" width="400" height="400" viewBox="0, 0, 400,400">
  <g id="googletest-logo">
    <path id="text" d="M280.500 37.897 C 281.985 37.974,284.415 37.974,285.900 37.897 C 287.385 37.820,286.170 37.757,283.200 37.757 C 280.230 37.757,279.015 37.820,280.500 37.897 M290.100 37.887 C 290.705 37.978,291.695 37.978,292.300 37.887 C 292.905 37.795,292.410 37.720,291.200 37.720 C 289.990 37.720,289.495 37.795,290.100 37.887 M229.600 91.579 C 223.560 91.841,222.178 92.028,219.532 92.941 C 217.846 93.524,215.866 94.002,215.133 94.004 C 214.400 94.006,212.837 94.456,211.660 95.004 C 210.483 95.552,209.311 96.000,209.054 96.000 C 208.798 96.000,207.916 96.360,207.096 96.800 C 206.275 97.240,205.332 97.600,205.001 97.600 C 204.671 97.600,204.025 97.975,203.568 98.432 C 202.772 99.228,201.679 98.750,201.613 97.576 C 201.606 97.452,200.385 98.507,198.900 99.920 C 197.415 101.333,194.432 103.755,192.271 105.303 C 182.266 112.469,173.540 122.954,174.101 127.137 C 174.640 131.159,178.609 136.337,183.600 139.532 C 184.810 140.307,186.970 141.871,188.400 143.007 C 189.830 144.143,191.810 145.622,192.800 146.292 C 200.252 151.337,212.572 164.099,215.495 169.800 C 219.383 177.384,219.400 177.460,219.400 187.800 L 219.400 197.000 218.015 200.600 C 216.633 204.193,215.511 206.514,212.598 211.800 C 210.795 215.072,200.859 225.358,198.200 226.705 C 197.320 227.151,195.508 228.320,194.174 229.302 C 192.840 230.285,191.085 231.308,190.274 231.575 C 189.463 231.843,188.800 232.321,188.800 232.637 C 188.800 233.134,195.902 233.197,241.500 233.106 L 294.200 233.000 297.209 231.512 C 303.021 228.638,306.538 223.852,307.231 217.876 C 307.628 214.459,307.616 126.951,307.219 118.000 C 307.067 114.590,306.911 112.370,306.872 113.067 C 306.704 116.040,305.881 116.317,303.931 114.057 C 302.357 112.232,297.699 108.256,296.700 107.885 C 296.315 107.742,296.000 107.362,296.000 107.040 C 296.000 106.717,295.595 106.326,295.100 106.169 C 294.605 106.013,293.643 105.461,292.962 104.942 C 292.281 104.424,291.573 104.000,291.388 104.000 C 291.203 104.000,290.680 103.669,290.226 103.265 C 289.772 102.860,288.770 102.287,288.000 101.992 C 287.230 101.696,286.171 101.127,285.646 100.727 C 285.121 100.327,284.525 100.000,284.321 100.000 C 284.117 100.000,282.746 99.442,281.275 98.761 C 277.155 96.853,277.139 96.846,274.800 96.240 C 273.590 95.926,271.995 95.361,271.256 94.984 C 270.517 94.606,268.710 94.166,267.240 94.004 C 265.770 93.843,264.214 93.527,263.783 93.302 C 261.792 92.263,260.746 92.029,257.200 91.834 C 249.425 91.404,236.383 91.283,229.600 91.579 M255.273 92.525 C 257.724 92.601,259.784 92.855,260.104 93.120 C 260.411 93.375,261.818 93.848,263.231 94.171 C 268.681 95.416,271.868 96.329,273.600 97.140 C 274.590 97.603,275.897 97.986,276.505 97.991 C 277.561 98.000,278.697 98.473,280.000 99.449 C 280.330 99.696,281.273 100.019,282.095 100.167 C 282.929 100.316,283.764 100.760,283.984 101.170 C 284.231 101.633,285.035 102.004,286.147 102.171 C 287.380 102.356,287.974 102.657,288.106 103.164 C 288.227 103.623,288.830 103.992,289.744 104.163 C 290.539 104.312,291.368 104.766,291.585 105.171 C 291.801 105.576,292.428 106.021,292.978 106.159 C 293.527 106.297,294.168 106.767,294.403 107.205 C 294.637 107.642,295.026 108.000,295.268 108.000 C 295.510 108.000,296.111 108.405,296.603 108.900 C 298.066 110.371,299.718 111.671,300.682 112.110 C 301.178 112.336,301.690 112.854,301.819 113.261 C 301.949 113.668,302.402 114.187,302.827 114.414 C 303.252 114.642,303.600 115.029,303.600 115.274 C 303.600 115.519,304.213 116.315,304.963 117.043 C 306.729 118.758,306.645 116.217,306.730 170.400 C 306.799 214.927,306.662 219.806,305.274 222.116 C 304.850 222.822,304.392 223.873,304.256 224.451 C 304.120 225.029,303.557 225.798,303.005 226.160 C 302.452 226.522,302.000 227.084,302.000 227.409 C 302.000 227.734,301.734 228.000,301.409 228.000 C 301.084 228.000,300.536 228.431,300.191 228.957 C 299.803 229.549,298.885 230.085,297.782 230.363 C 296.802 230.610,296.000 230.980,296.000 231.187 C 296.000 232.296,291.707 232.396,243.776 232.398 C 191.080 232.400,191.813 232.427,193.949 230.561 C 194.428 230.142,195.220 229.420,195.710 228.956 C 196.199 228.491,197.050 227.974,197.600 227.805 C 200.360 226.961,211.288 216.023,213.151 212.239 C 213.840 210.840,214.661 209.481,214.976 209.220 C 215.291 208.959,215.661 208.232,215.799 207.605 C 215.936 206.979,216.386 206.077,216.798 205.602 C 217.210 205.127,217.745 203.815,217.987 202.686 C 218.229 201.557,218.704 200.327,219.041 199.954 C 220.747 198.070,220.822 177.229,219.129 175.913 C 218.765 175.631,218.251 174.322,217.986 173.004 C 217.706 171.616,217.209 170.402,216.805 170.118 C 216.420 169.849,215.991 169.057,215.852 168.359 C 215.712 167.661,215.146 166.620,214.595 166.045 C 212.314 163.670,212.000 163.302,212.000 163.000 C 212.000 162.657,211.722 162.345,207.822 158.300 C 206.390 156.815,205.047 155.600,204.836 155.600 C 204.626 155.600,204.340 155.240,204.200 154.800 C 204.060 154.360,203.692 154.000,203.382 154.000 C 203.072 154.000,202.524 153.550,202.163 153.000 C 201.803 152.450,201.254 152.000,200.944 152.000 C 200.634 152.000,200.209 151.550,200.000 151.000 C 199.791 150.450,199.341 150.000,199.000 150.000 C 198.659 150.000,198.209 149.550,198.000 149.000 C 197.767 148.388,197.306 148.000,196.810 148.000 C 196.364 148.000,196.000 147.738,196.000 147.419 C 196.000 147.099,195.190 146.479,194.200 146.041 C 193.210 145.603,192.400 145.045,192.400 144.802 C 192.400 144.558,191.860 144.170,191.200 143.940 C 190.540 143.710,190.000 143.272,190.000 142.966 C 190.000 142.661,189.415 142.162,188.700 141.858 C 187.985 141.555,186.860 140.829,186.200 140.245 C 185.540 139.662,184.730 138.948,184.400 138.657 C 184.070 138.367,183.468 138.010,183.062 137.863 C 182.656 137.716,182.230 137.237,182.115 136.798 C 181.996 136.340,181.570 136.000,181.116 136.000 C 180.652 136.000,180.235 135.657,180.108 135.169 C 179.988 134.712,179.465 134.177,178.945 133.979 C 178.425 133.782,178.000 133.299,178.000 132.906 C 178.000 132.514,177.656 131.978,177.236 131.715 C 176.816 131.453,176.346 130.645,176.191 129.919 C 176.037 129.194,175.689 128.330,175.419 128.000 C 174.547 126.937,175.681 122.662,177.043 121.880 C 177.349 121.704,177.600 121.374,177.600 121.147 C 177.600 120.693,180.066 117.510,181.495 116.119 C 181.993 115.635,182.400 115.062,182.400 114.846 C 182.400 114.630,182.733 114.348,183.139 114.219 C 183.546 114.090,184.082 113.538,184.331 112.992 C 184.579 112.447,185.045 112.000,185.364 112.000 C 185.684 112.000,186.048 111.685,186.172 111.300 C 186.296 110.915,186.893 110.287,187.499 109.906 C 188.105 109.524,189.590 108.489,190.800 107.606 C 192.010 106.724,193.159 106.001,193.354 106.001 C 193.549 106.000,194.179 105.548,194.754 104.996 C 197.111 102.732,197.454 102.491,198.703 102.219 C 199.420 102.063,200.179 101.614,200.389 101.221 C 200.607 100.813,201.437 100.400,202.325 100.258 C 203.180 100.122,204.342 99.646,204.907 99.201 C 205.473 98.757,206.535 98.280,207.268 98.142 C 208.000 98.003,208.870 97.668,209.200 97.396 C 209.530 97.125,210.790 96.596,212.000 96.220 C 213.210 95.845,214.470 95.430,214.800 95.297 C 215.130 95.165,215.670 95.009,216.000 94.952 C 218.810 94.460,222.201 93.531,222.702 93.116 C 223.141 92.751,225.680 92.574,231.756 92.487 C 236.400 92.420,240.456 92.328,240.770 92.283 C 241.380 92.194,248.309 92.310,255.273 92.525 M197.815 263.176 C 197.652 263.440,197.462 313.164,197.592 321.500 C 197.598 321.848,198.391 322.000,200.200 322.000 C 202.012 322.000,202.800 321.849,202.802 321.500 C 202.803 321.225,202.848 307.997,202.902 292.104 C 202.983 268.342,202.905 263.172,202.467 263.004 C 201.551 262.653,198.059 262.781,197.815 263.176 M258.909 264.661 C 256.251 266.531,255.806 267.765,256.170 272.247 C 256.504 276.371,256.211 277.018,253.844 277.373 C 251.580 277.712,251.124 278.290,251.277 280.628 C 251.410 282.675,251.579 282.844,254.329 283.677 L 256.059 284.200 256.173 299.800 C 256.326 320.913,256.797 321.991,265.871 321.998 C 269.390 322.001,270.156 321.461,269.755 319.261 C 269.181 316.119,269.060 316.000,266.419 316.000 C 262.484 316.000,262.622 316.597,262.481 299.027 C 262.345 282.097,262.101 283.200,265.996 283.200 C 268.767 283.200,269.200 282.790,269.200 280.163 C 269.200 277.739,269.005 277.600,265.616 277.600 C 262.287 277.600,262.280 277.585,262.454 269.903 C 262.625 262.286,262.515 262.123,258.909 264.661 M358.772 264.691 C 356.321 266.754,356.414 266.484,356.400 271.600 C 356.386 276.954,356.363 277.010,354.000 277.396 C 351.568 277.794,351.200 278.185,351.200 280.369 C 351.200 282.511,351.700 283.200,353.254 283.200 C 353.856 283.200,354.810 283.376,355.374 283.590 L 356.400 283.980 356.417 299.290 C 356.442 320.902,356.693 321.566,364.983 321.928 C 369.420 322.122,370.203 321.613,369.758 318.827 C 369.396 316.562,368.731 316.000,366.416 316.000 C 365.115 316.000,364.182 315.752,363.544 315.236 L 362.600 314.471 362.474 299.659 C 362.327 282.496,362.196 283.200,365.538 283.200 C 368.270 283.200,369.021 282.713,369.371 280.715 C 369.762 278.480,368.701 277.600,365.614 277.600 C 362.395 277.600,362.304 277.385,362.407 270.056 C 362.453 266.835,362.470 263.975,362.445 263.700 C 362.357 262.725,360.519 263.221,358.772 264.691 M55.356 277.592 C 54.714 277.851,54.447 278.420,54.242 279.966 C 53.896 282.574,53.350 282.583,50.555 280.029 C 48.131 277.813,46.187 277.315,41.446 277.695 C 25.339 278.988,22.398 312.737,37.682 320.881 C 41.452 322.889,46.600 322.082,51.522 318.711 C 54.176 316.893,54.565 317.295,54.234 321.508 C 53.752 327.633,52.781 329.712,49.440 331.777 C 44.337 334.932,36.673 332.676,35.143 327.567 C 33.880 323.351,27.112 323.608,28.172 327.832 C 30.024 335.211,34.035 338.106,42.714 338.329 L 48.428 338.476 51.316 337.104 C 56.946 334.430,59.234 330.814,60.003 323.377 C 60.584 317.760,60.562 278.478,59.978 277.774 C 59.455 277.143,56.731 277.036,55.356 277.592 M180.695 277.700 C 180.299 278.002,179.990 278.913,179.919 279.997 C 179.758 282.429,179.015 282.476,176.131 280.239 C 167.667 273.675,156.419 279.232,153.747 291.299 C 149.100 312.285,161.914 328.504,175.754 319.154 C 179.571 316.575,179.777 316.698,179.473 321.358 C 179.163 326.103,178.663 327.706,176.873 329.691 C 171.759 335.364,162.210 333.923,160.401 327.205 C 159.875 325.252,158.810 324.706,155.867 324.882 C 153.244 325.038,152.886 325.626,153.600 328.602 C 155.335 335.832,159.859 338.618,169.400 338.328 C 178.228 338.060,182.313 335.044,184.251 327.361 C 185.147 323.808,185.632 278.802,184.785 277.781 C 184.193 277.069,181.594 277.017,180.695 277.700 M81.921 278.135 C 74.529 280.221,70.514 286.910,70.107 297.816 C 69.520 313.550,75.209 321.638,86.932 321.733 C 99.855 321.837,107.381 309.162,104.217 292.623 C 102.134 281.735,92.152 275.249,81.921 278.135 M123.959 277.947 C 108.327 281.285,106.486 313.088,121.497 320.478 C 128.877 324.111,140.347 320.309,143.728 313.111 C 145.938 308.406,146.764 297.870,145.420 291.531 C 143.291 281.484,134.236 275.753,123.959 277.947 M224.359 277.949 C 210.922 280.800,206.580 307.231,217.853 317.560 C 225.935 324.966,240.070 322.528,244.956 312.886 C 247.137 308.582,242.233 307.948,238.255 312.019 C 230.509 319.947,220.041 315.730,217.552 303.680 C 216.790 299.992,215.928 300.205,231.723 300.165 C 239.245 300.145,245.644 300.100,245.942 300.065 C 246.608 299.985,246.273 294.746,245.362 291.000 C 243.009 281.322,234.216 275.858,224.359 277.949 M286.975 277.949 C 278.868 280.064,274.226 288.029,274.241 299.800 C 274.255 311.065,277.249 317.019,284.640 320.477 C 293.233 324.499,306.223 319.368,308.203 311.170 C 308.911 308.239,303.839 308.834,300.897 312.028 C 294.193 319.306,284.206 316.473,281.021 306.390 C 278.843 299.495,278.166 299.786,295.608 300.114 C 310.548 300.394,309.402 300.754,308.864 295.950 C 307.395 282.839,297.963 275.082,286.975 277.949 M324.931 277.990 C 319.165 279.225,315.964 283.447,315.964 289.814 C 315.964 297.070,318.152 298.955,331.600 303.281 C 339.647 305.870,340.792 306.764,340.193 309.996 C 338.705 318.026,325.046 318.084,321.434 310.075 C 320.403 307.789,316.426 306.323,315.214 307.783 C 313.829 309.452,317.943 317.227,321.437 319.542 C 329.526 324.900,343.636 320.718,346.073 312.240 C 348.505 303.780,345.078 299.467,332.800 295.536 C 322.734 292.314,321.600 291.608,321.600 288.565 C 321.600 282.259,333.246 281.106,337.587 286.983 C 341.330 292.049,346.444 290.832,344.060 285.443 C 341.383 279.391,333.226 276.213,324.931 277.990 M47.858 284.388 C 54.083 287.958,56.602 299.781,53.123 309.106 C 49.017 320.116,35.876 317.390,33.958 305.129 C 31.649 290.370,39.045 279.333,47.858 284.388 M91.000 284.160 C 97.466 287.237,100.454 296.330,98.177 305.995 C 95.206 318.598,80.545 319.557,76.690 307.400 C 72.190 293.206,80.761 279.286,91.000 284.160 M132.717 284.234 C 142.981 289.348,142.980 309.928,132.716 315.233 C 127.661 317.845,120.189 313.956,118.152 307.652 C 117.107 304.419,117.095 294.787,118.133 291.427 C 120.067 285.159,127.358 281.563,132.717 284.234 M171.789 283.769 C 180.626 287.462,183.252 305.757,175.936 312.660 C 167.646 320.481,159.340 314.571,158.893 300.534 C 158.508 288.433,164.453 280.704,171.789 283.769 M233.496 284.223 C 238.460 286.697,241.973 293.735,238.600 294.451 C 236.259 294.948,218.595 294.835,218.080 294.320 C 217.365 293.605,217.499 292.433,218.558 290.159 C 221.260 284.356,228.216 281.592,233.496 284.223 M296.328 284.427 C 300.749 286.637,304.572 293.126,302.100 294.226 C 301.213 294.621,282.743 294.973,281.344 294.622 C 278.983 294.029,281.244 288.361,284.961 285.551 C 288.592 282.807,292.344 282.436,296.328 284.427 M34.172 350.002 C 24.128 352.189,25.138 370.666,35.349 371.512 C 40.018 371.900,43.146 369.422,43.496 365.058 C 43.763 361.730,43.129 361.200,38.882 361.200 C 35.059 361.200,34.797 362.321,38.452 363.044 C 41.998 363.746,42.552 364.807,40.589 367.141 C 37.090 371.299,31.507 369.539,29.757 363.725 C 27.349 355.722,34.568 348.475,39.643 353.800 C 42.180 356.462,43.810 356.034,42.108 353.153 C 40.667 350.712,37.211 349.340,34.172 350.002 M167.197 349.933 C 166.625 350.126,166.708 351.598,167.300 351.770 C 167.575 351.849,168.700 352.068,169.800 352.257 L 171.800 352.600 172.000 361.595 C 172.187 369.995,172.250 370.599,172.952 370.734 C 174.245 370.983,174.388 370.036,174.394 361.143 C 174.401 351.411,174.195 352.000,177.584 352.000 C 179.531 352.000,180.920 351.146,180.163 350.416 C 179.821 350.085,168.048 349.647,167.197 349.933 M116.853 351.017 C 111.791 355.276,112.171 368.841,117.414 371.031 C 120.926 372.499,127.679 369.383,127.133 366.547 C 126.869 365.175,125.674 365.497,123.880 367.423 C 119.102 372.553,114.279 367.085,115.669 358.113 C 116.416 353.297,117.440 352.000,120.496 352.000 C 121.918 352.000,122.339 352.231,123.780 353.800 C 126.308 356.554,128.149 356.073,126.222 353.161 C 124.054 349.886,119.449 348.832,116.853 351.017 M254.655 350.740 C 254.061 351.395,253.997 352.567,254.093 361.040 L 254.200 370.600 255.100 370.728 C 256.162 370.879,256.137 371.022,256.013 365.549 C 255.898 360.448,255.687 360.666,260.996 360.400 C 266.695 360.115,267.016 359.052,261.528 358.638 C 256.548 358.262,255.790 357.866,255.836 355.665 C 255.893 352.985,256.521 352.623,261.394 352.464 C 265.834 352.319,267.027 351.837,266.000 350.600 C 265.185 349.617,255.563 349.736,254.655 350.740 M86.772 351.252 C 86.479 351.800,86.404 353.123,86.562 354.952 C 86.698 356.519,86.839 360.550,86.877 363.911 C 86.944 369.972,87.246 371.313,88.382 370.611 C 88.833 370.332,88.995 352.173,88.557 351.033 C 88.214 350.137,87.309 350.248,86.772 351.252 M214.800 351.000 C 214.800 351.367,214.994 351.602,215.230 351.523 C 215.466 351.445,215.660 351.209,215.660 351.000 C 215.660 350.791,215.466 350.555,215.230 350.477 C 214.994 350.398,214.800 350.633,214.800 351.000 M363.816 351.273 C 363.138 354.224,363.802 370.600,364.600 370.600 C 365.279 370.600,365.416 370.298,365.505 368.600 C 365.782 363.288,366.186 363.413,371.007 370.300 C 371.671 371.248,372.968 371.499,373.421 370.766 C 373.568 370.528,372.484 368.557,371.011 366.387 C 367.916 361.826,367.916 361.730,371.029 359.275 C 372.232 358.326,373.112 357.381,372.984 357.175 C 372.667 356.661,370.509 356.701,370.184 357.226 C 369.636 358.113,366.721 359.945,366.185 359.739 C 365.762 359.577,365.598 358.437,365.513 355.067 C 365.416 351.229,365.305 350.591,364.714 350.478 C 364.267 350.393,363.955 350.669,363.816 351.273 M206.615 354.121 C 205.627 355.629,205.456 357.361,206.161 358.725 C 206.639 359.649,206.801 361.148,206.806 364.680 C 206.812 369.846,207.231 371.316,208.756 371.534 C 210.264 371.750,210.592 371.062,209.856 369.222 C 208.682 366.288,208.517 359.952,209.571 358.248 C 210.506 356.734,210.479 356.598,208.825 354.500 C 207.605 352.953,207.403 352.918,206.615 354.121 M135.353 355.378 C 135.219 355.728,135.322 356.860,135.582 357.893 C 136.136 360.093,135.593 360.800,133.350 360.800 C 129.796 360.800,129.166 362.476,132.523 362.998 C 135.775 363.503,135.727 363.458,135.461 365.743 C 135.197 368.016,135.583 369.046,136.560 368.671 C 137.039 368.487,137.200 367.874,137.200 366.235 C 137.200 363.613,138.021 362.800,140.665 362.800 C 143.887 362.800,143.286 361.762,139.647 361.044 L 137.400 360.600 137.200 357.804 C 136.999 354.996,136.002 353.686,135.353 355.378 M150.950 355.387 C 150.813 355.743,150.819 356.917,150.962 357.997 C 151.261 360.252,151.006 360.511,148.000 361.000 C 147.010 361.161,145.750 361.527,145.200 361.812 L 144.200 362.331 145.200 362.540 C 145.750 362.654,147.070 362.849,148.133 362.971 C 150.760 363.274,150.800 363.319,150.800 366.036 C 150.800 367.884,150.949 368.482,151.458 368.678 C 152.470 369.066,153.151 367.800,152.907 365.983 C 152.644 364.022,153.152 363.374,155.208 363.045 C 157.097 362.743,157.345 361.794,155.700 361.156 C 152.694 359.990,152.680 359.973,152.639 357.407 C 152.599 354.976,151.577 353.753,150.950 355.387 M64.200 356.710 C 60.661 357.033,59.999 358.071,60.002 363.287 C 60.006 368.813,60.910 370.751,63.864 371.567 C 66.796 372.376,69.556 369.737,70.206 365.500 C 70.334 364.664,70.664 364.000,70.951 364.000 C 71.469 364.000,71.601 364.218,73.219 367.739 C 74.247 369.978,75.938 371.196,78.020 371.199 C 79.723 371.200,80.400 371.784,80.400 373.251 C 80.400 375.646,78.280 376.257,75.804 374.577 C 74.074 373.403,73.200 373.538,73.200 374.978 C 73.200 376.466,74.712 377.267,77.497 377.254 C 82.499 377.230,82.635 376.942,83.038 365.545 C 83.363 356.360,83.576 356.800,78.800 356.800 C 74.841 356.800,73.586 357.804,72.642 361.727 C 72.235 363.421,71.162 362.936,70.000 360.531 C 68.321 357.058,67.355 356.421,64.200 356.710 M197.000 356.603 C 196.780 356.673,196.120 356.835,195.533 356.964 C 193.884 357.327,192.939 360.077,193.776 362.080 C 194.495 363.801,195.466 364.558,198.063 365.421 C 200.117 366.103,200.729 367.037,200.008 368.385 C 199.478 369.376,197.537 369.475,195.854 368.598 C 194.421 367.850,194.143 367.850,193.855 368.600 C 192.736 371.518,200.484 372.834,202.008 369.984 C 203.455 367.281,202.243 364.244,199.386 363.413 C 196.876 362.683,195.600 361.628,195.600 360.280 C 195.600 358.420,198.047 357.717,199.930 359.036 C 201.026 359.804,202.000 359.517,202.000 358.427 C 202.000 357.304,198.645 356.080,197.000 356.603 M356.899 356.682 C 355.390 356.973,355.173 358.029,355.290 364.493 C 355.395 370.297,355.440 370.600,356.200 370.600 C 356.941 370.600,357.031 370.193,357.421 365.104 C 357.820 359.897,357.901 359.548,358.965 358.437 C 360.616 356.713,359.900 356.105,356.899 356.682 M48.731 357.215 C 45.378 359.171,45.480 368.719,48.876 370.790 C 53.708 373.736,57.753 368.108,56.014 360.858 C 55.124 357.147,51.745 355.456,48.731 357.215 M93.980 358.086 C 89.205 363.314,93.135 373.254,99.149 371.158 C 101.964 370.177,101.596 368.083,98.743 368.846 C 96.391 369.475,94.887 369.085,94.554 367.760 C 94.121 366.035,95.174 365.402,98.510 365.384 C 102.035 365.365,102.473 364.744,101.627 360.963 C 100.661 356.647,96.667 355.144,93.980 358.086 M181.169 357.969 C 179.104 360.035,179.524 368.262,181.805 370.405 C 183.868 372.343,188.800 371.628,188.800 369.390 C 188.800 368.274,188.521 368.212,186.385 368.852 C 183.944 369.583,182.000 369.026,182.000 367.596 C 182.000 366.092,182.867 365.635,186.302 365.330 C 189.578 365.039,190.000 364.743,190.000 362.738 C 190.000 357.535,184.548 354.591,181.169 357.969 M214.500 357.065 C 213.729 357.376,213.788 370.633,214.561 370.930 C 216.088 371.516,216.374 370.438,216.426 363.923 C 216.483 356.700,216.373 356.309,214.500 357.065 M220.189 357.300 C 219.481 359.204,219.833 370.600,220.600 370.600 C 221.333 370.600,221.421 370.251,221.648 366.400 C 222.051 359.568,222.981 357.557,225.451 358.177 C 226.879 358.535,227.200 359.870,227.200 365.439 C 227.200 370.587,227.549 371.604,228.922 370.464 C 229.573 369.925,229.480 358.870,228.814 357.627 C 228.280 356.628,220.548 356.335,220.189 357.300 M235.131 357.214 C 233.467 358.185,232.651 363.643,233.586 367.541 C 234.213 370.154,235.090 370.892,237.839 371.120 C 240.429 371.335,241.311 372.360,240.478 374.189 C 239.668 375.966,237.901 375.873,235.119 373.909 C 234.244 373.291,233.867 373.691,233.867 375.235 C 233.867 376.951,234.538 377.249,238.091 377.113 C 242.384 376.949,242.756 376.531,243.218 371.357 C 243.888 363.852,243.718 357.691,242.826 357.214 C 241.851 356.692,236.026 356.693,235.131 357.214 M270.039 357.353 C 269.124 358.455,269.640 371.000,270.600 371.000 C 271.345 371.000,271.421 370.631,271.706 365.600 C 272.085 358.903,272.144 358.645,273.413 358.067 C 273.981 357.808,274.334 357.417,274.199 357.198 C 273.826 356.595,270.567 356.716,270.039 357.353 M278.600 357.085 C 277.380 357.379,277.074 357.843,277.357 358.971 C 277.645 360.117,278.805 360.358,279.574 359.431 C 280.246 358.621,283.085 358.206,283.814 358.811 C 285.220 359.979,284.307 363.200,282.570 363.200 C 278.036 363.200,274.882 368.082,277.636 370.836 C 278.557 371.757,285.055 371.750,286.167 370.828 C 286.846 370.264,286.743 358.989,286.048 357.689 C 285.574 356.805,281.230 356.453,278.600 357.085 M291.377 357.316 C 290.704 359.069,291.419 370.600,292.200 370.600 C 292.951 370.600,293.012 370.267,293.200 365.161 C 293.440 358.647,293.610 358.309,296.564 358.481 L 298.600 358.600 298.800 364.600 C 298.991 370.324,299.039 370.606,299.843 370.720 C 300.659 370.837,300.693 370.655,300.889 365.227 C 301.117 358.872,301.346 358.293,303.557 358.480 C 305.654 358.657,305.987 359.645,305.994 365.713 C 306.000 371.068,306.337 372.014,307.805 370.796 C 309.128 369.698,308.443 358.900,306.956 357.413 C 306.124 356.581,291.693 356.491,291.377 357.316 M313.277 357.073 C 312.274 357.474,310.800 361.575,310.804 363.950 C 310.814 369.720,314.522 372.897,319.042 371.008 C 320.666 370.330,320.956 368.482,319.400 368.724 C 315.680 369.303,314.565 369.262,313.642 368.515 C 311.638 366.891,314.205 365.207,318.692 365.202 C 320.958 365.200,320.753 365.425,321.408 362.220 C 321.596 361.298,320.418 358.475,319.434 357.492 C 318.757 356.814,314.625 356.533,313.277 357.073 M330.428 357.174 C 329.256 357.916,333.698 370.908,335.201 371.134 C 337.213 371.436,337.698 367.022,335.816 365.541 C 334.861 364.790,333.200 360.502,333.200 358.786 C 333.200 357.326,331.631 356.413,330.428 357.174 M343.197 357.522 C 341.681 358.749,341.190 366.823,342.479 369.321 C 343.846 371.972,349.108 372.330,350.337 369.856 C 352.209 366.088,351.852 358.906,349.713 357.300 C 348.660 356.510,344.262 356.660,343.197 357.522 M323.134 357.399 C 323.025 357.508,323.436 358.633,324.048 359.899 C 324.670 361.184,325.452 363.878,325.821 366.000 C 326.550 370.196,327.403 371.548,328.837 370.780 C 330.122 370.092,329.665 367.099,327.406 361.400 C 325.934 357.688,324.339 356.194,323.134 357.399 M337.443 358.233 C 337.062 359.225,337.159 365.600,337.554 365.600 C 338.340 365.600,339.200 362.797,339.200 360.240 C 339.200 357.582,338.152 356.385,337.443 358.233 M53.003 358.953 C 54.768 360.243,54.144 368.769,52.258 369.132 C 49.773 369.610,48.619 367.789,48.628 363.403 C 48.637 359.088,50.540 357.152,53.003 358.953 M66.675 358.714 C 69.484 360.501,68.223 368.860,65.105 369.123 C 62.860 369.312,62.200 368.006,62.200 363.378 C 62.200 358.799,63.946 356.979,66.675 358.714 M80.238 359.402 C 81.121 360.749,80.897 367.674,79.940 368.631 C 78.056 370.515,74.800 367.404,74.800 363.721 C 74.800 359.374,78.365 356.543,80.238 359.402 M186.831 359.569 C 188.831 361.569,188.008 363.200,185.000 363.200 C 182.883 363.200,182.000 362.432,182.000 360.591 C 182.000 358.166,184.829 357.568,186.831 359.569 M240.238 359.242 C 241.204 360.309,241.365 367.036,240.451 368.138 C 238.927 369.976,235.920 368.617,235.426 365.866 C 234.471 360.543,237.563 356.287,240.238 359.242 M318.384 359.275 C 320.302 361.334,318.714 363.339,315.335 363.123 L 313.400 363.000 313.433 361.322 C 313.490 358.394,316.431 357.179,318.384 359.275 M348.641 359.406 C 350.683 362.523,349.149 369.000,346.369 369.000 C 343.918 369.000,342.669 360.578,344.889 359.023 C 346.253 358.067,347.872 358.232,348.641 359.406 M98.826 359.214 C 99.722 359.693,99.908 362.059,99.100 362.696 C 97.356 364.070,94.400 363.305,94.400 361.480 C 94.400 359.270,96.716 358.085,98.826 359.214 M283.520 365.680 C 284.200 366.360,284.115 368.228,283.371 368.971 C 281.816 370.527,278.738 368.887,279.385 366.847 C 279.791 365.568,282.612 364.772,283.520 365.680 " stroke="none" fill="#626068" fill-rule="evenodd" />

    <path id="blue-shapes" d="M125.000 37.483 C 122.327 38.118,117.613 44.859,115.546 51.000 C 113.665 56.589,113.541 68.068,115.304 73.400 C 115.886 75.160,116.617 77.770,116.928 79.200 C 119.970 93.170,130.424 106.882,141.600 111.560 C 154.880 117.120,173.533 110.225,179.277 97.633 C 181.273 93.257,181.110 74.392,179.025 68.508 C 178.461 66.917,178.000 65.319,178.000 64.958 C 178.000 64.313,176.335 60.339,173.910 55.200 C 170.918 48.856,163.129 38.998,160.113 37.738 C 158.853 37.211,127.112 36.981,125.000 37.483 M97.467 107.467 C 96.948 107.986,97.157 162.597,97.680 163.120 C 98.402 163.842,99.259 163.705,100.872 162.610 C 101.673 162.065,103.128 161.440,104.103 161.222 C 105.079 161.003,106.709 160.468,107.725 160.032 C 108.741 159.597,110.651 159.045,111.970 158.805 C 113.288 158.566,115.362 157.915,116.578 157.358 C 117.794 156.802,118.935 156.436,119.113 156.546 C 119.756 156.944,125.046 156.025,126.938 155.187 C 128.567 154.466,129.873 154.299,135.138 154.140 C 141.706 153.941,150.844 152.455,151.939 151.409 C 152.643 150.736,152.176 149.855,149.344 146.517 C 148.165 145.127,147.200 143.801,147.200 143.571 C 147.200 143.341,146.997 143.278,146.748 143.432 C 146.474 143.601,146.369 143.493,146.481 143.158 C 146.582 142.854,146.212 141.524,145.658 140.203 C 144.146 136.592,144.185 129.254,145.735 125.889 C 147.661 121.708,147.408 121.426,142.270 122.032 C 138.531 122.473,136.523 122.373,126.161 121.225 C 117.950 120.316,106.860 115.162,100.366 109.238 C 98.037 107.113,97.903 107.031,97.467 107.467 M202.989 292.400 C 202.989 307.690,203.039 313.945,203.100 306.300 C 203.161 298.655,203.161 286.145,203.100 278.500 C 203.039 270.855,202.989 277.110,202.989 292.400 M75.301 299.800 C 75.305 300.680,75.387 300.993,75.483 300.495 C 75.579 299.998,75.575 299.278,75.475 298.895 C 75.375 298.513,75.296 298.920,75.301 299.800 " stroke="none" fill="#227fd4" fill-rule="evenodd" />

    <path id="red-shapes" d="M196.111 38.288 C 196.008 38.557,197.350 40.407,199.093 42.400 C 201.881 45.588,206.000 51.997,206.000 53.147 C 206.000 53.373,206.450 54.404,207.000 55.438 C 207.550 56.473,208.000 57.836,208.000 58.467 C 208.000 59.098,208.467 60.917,209.038 62.508 C 210.477 66.520,210.615 76.694,209.271 79.733 C 208.812 80.769,208.257 82.594,208.036 83.788 C 207.815 84.982,207.087 87.131,206.417 88.563 C 205.748 89.995,205.200 91.260,205.200 91.374 C 205.200 91.488,204.390 92.789,203.400 94.265 C 199.964 99.388,200.912 99.466,211.650 94.947 C 212.888 94.426,214.508 93.996,215.250 93.992 C 215.993 93.987,217.860 93.532,219.400 92.980 C 222.717 91.792,236.311 90.985,246.200 91.388 C 257.688 91.857,261.355 92.087,261.969 92.377 C 262.316 92.541,263.043 92.908,263.583 93.193 C 264.124 93.478,265.770 93.843,267.240 94.004 C 268.710 94.166,270.517 94.606,271.256 94.984 C 271.995 95.361,273.590 95.926,274.800 96.240 C 277.139 96.846,277.155 96.853,281.275 98.761 C 282.746 99.442,284.117 100.000,284.321 100.000 C 284.525 100.000,285.121 100.327,285.646 100.727 C 286.171 101.127,287.230 101.696,288.000 101.992 C 288.770 102.287,289.772 102.860,290.226 103.265 C 290.680 103.669,291.203 104.000,291.388 104.000 C 291.573 104.000,292.281 104.424,292.962 104.942 C 293.643 105.461,294.605 106.013,295.100 106.169 C 295.595 106.326,296.000 106.717,296.000 107.040 C 296.000 107.362,296.315 107.742,296.700 107.885 C 297.699 108.256,302.357 112.232,303.931 114.057 C 305.441 115.808,306.283 116.010,306.607 114.700 C 307.292 111.931,306.593 50.986,305.859 49.400 C 305.451 48.520,304.775 47.044,304.357 46.119 C 303.939 45.195,303.354 44.295,303.057 44.119 C 302.760 43.944,302.304 43.395,302.044 42.900 C 301.784 42.405,301.329 42.000,301.032 42.000 C 300.735 42.000,300.212 41.572,299.869 41.049 C 299.501 40.488,298.678 39.991,297.863 39.838 C 297.103 39.696,296.264 39.318,296.000 39.000 C 295.736 38.682,294.866 38.299,294.068 38.149 C 291.233 37.617,196.317 37.752,196.111 38.288 " stroke="none" fill="#e20000" fill-rule="evenodd" />

    <path id="yellow-shapes" d="M195.925 37.218 C 194.202 37.625,194.683 38.677,198.419 42.675 C 202.532 47.077,206.214 53.763,207.467 59.107 C 207.814 60.588,208.436 62.944,208.849 64.342 C 209.772 67.466,209.865 74.716,209.024 78.000 C 207.454 84.132,206.671 86.671,205.779 88.521 C 205.241 89.637,204.800 90.685,204.800 90.849 C 204.800 91.014,203.795 92.645,202.567 94.474 C 199.869 98.492,199.348 99.403,199.965 99.022 C 200.414 98.744,205.200 91.749,205.200 91.370 C 205.200 91.258,205.748 89.995,206.417 88.563 C 207.087 87.131,207.815 84.982,208.036 83.788 C 208.257 82.594,208.812 80.769,209.271 79.733 C 210.615 76.694,210.477 66.520,209.038 62.508 C 208.467 60.917,208.000 59.098,208.000 58.467 C 208.000 57.836,207.550 56.473,207.000 55.438 C 206.450 54.404,206.000 53.373,206.000 53.147 C 206.000 51.998,201.882 45.589,199.099 42.407 C 197.360 40.418,195.997 38.608,196.072 38.385 C 196.162 38.113,212.463 37.950,245.204 37.893 L 294.200 37.808 296.982 39.145 C 300.098 40.643,304.212 44.484,304.650 46.303 C 304.796 46.906,305.337 48.245,305.853 49.277 L 306.791 51.155 306.840 81.277 C 306.867 97.845,307.028 112.390,307.197 113.600 C 307.367 114.810,307.482 101.400,307.453 83.800 L 307.400 51.800 306.200 48.616 C 304.168 43.227,299.757 39.220,294.062 37.591 C 292.535 37.155,197.720 36.794,195.925 37.218 M145.800 161.980 C 140.819 162.181,138.089 162.466,136.944 162.902 C 136.033 163.250,133.423 163.917,131.144 164.385 C 126.455 165.348,122.343 166.694,118.091 168.657 C 116.491 169.396,115.077 170.000,114.949 170.000 C 114.821 170.000,114.208 170.405,113.588 170.900 C 112.968 171.395,111.690 172.340,110.747 173.000 C 108.110 174.847,105.283 177.563,103.905 179.577 C 100.241 184.930,100.093 185.234,99.362 188.922 C 97.997 195.816,98.839 203.346,101.558 208.570 C 105.198 215.561,116.782 224.369,124.960 226.364 C 126.039 226.627,127.389 227.084,127.960 227.379 C 128.532 227.675,130.695 228.123,132.767 228.375 C 134.839 228.627,137.719 229.230,139.167 229.716 C 143.181 231.063,161.700 231.044,165.490 229.689 C 166.860 229.199,169.380 228.592,171.090 228.341 C 181.026 226.880,190.897 220.103,195.500 211.581 C 198.877 205.329,198.858 192.290,195.466 188.000 C 195.205 187.670,194.645 186.770,194.222 186.000 C 192.893 183.580,189.130 179.185,186.820 177.354 C 183.999 175.118,184.027 175.138,182.600 174.231 C 181.940 173.812,180.500 172.725,179.400 171.815 C 178.300 170.905,176.320 169.455,175.000 168.593 C 173.680 167.730,171.880 166.467,171.000 165.785 C 165.636 161.629,163.284 161.274,145.800 161.980 M197.102 285.738 C 197.158 297.652,197.253 310.190,197.313 313.600 C 197.373 317.010,197.459 307.470,197.505 292.400 C 197.550 277.330,197.456 264.792,197.294 264.538 C 197.132 264.283,197.046 273.823,197.102 285.738 M350.893 280.400 C 350.893 281.170,350.975 281.485,351.076 281.100 C 351.176 280.715,351.176 280.085,351.076 279.700 C 350.975 279.315,350.893 279.630,350.893 280.400 M256.101 285.800 C 256.105 286.680,256.187 286.993,256.283 286.495 C 256.379 285.998,256.375 285.278,256.275 284.895 C 256.175 284.513,256.096 284.920,256.101 285.800 M356.150 291.400 C 356.151 293.820,356.216 294.758,356.296 293.485 C 356.376 292.212,356.375 290.232,356.294 289.085 C 356.214 287.938,356.149 288.980,356.150 291.400 M315.693 291.200 C 315.693 291.970,315.775 292.285,315.876 291.900 C 315.976 291.515,315.976 290.885,315.876 290.500 C 315.775 290.115,315.693 290.430,315.693 291.200 M152.909 296.000 C 152.909 296.990,152.987 297.395,153.082 296.900 C 153.178 296.405,153.178 295.595,153.082 295.100 C 152.987 294.605,152.909 295.010,152.909 296.000 M179.709 297.200 C 179.709 298.190,179.787 298.595,179.882 298.100 C 179.978 297.605,179.978 296.795,179.882 296.300 C 179.787 295.805,179.709 296.210,179.709 297.200 M69.737 299.800 C 69.739 301.560,69.809 302.230,69.893 301.289 C 69.978 300.349,69.977 298.909,69.891 298.089 C 69.805 297.270,69.736 298.040,69.737 299.800 M211.342 300.200 C 211.341 302.180,211.408 303.040,211.492 302.112 C 211.576 301.184,211.577 299.564,211.495 298.512 C 211.412 297.460,211.343 298.220,211.342 300.200 M110.909 299.200 C 110.909 300.190,110.987 300.595,111.082 300.100 C 111.178 299.605,111.178 298.795,111.082 298.300 C 110.987 297.805,110.909 298.210,110.909 299.200 M179.709 302.000 C 179.709 302.990,179.787 303.395,179.882 302.900 C 179.978 302.405,179.978 301.595,179.882 301.100 C 179.787 300.605,179.709 301.010,179.709 302.000 M152.914 303.400 C 152.917 304.500,152.995 304.903,153.087 304.295 C 153.179 303.686,153.177 302.786,153.082 302.295 C 152.987 301.803,152.911 302.300,152.914 303.400 M111.293 304.000 C 111.293 304.770,111.375 305.085,111.476 304.700 C 111.576 304.315,111.576 303.685,111.476 303.300 C 111.375 302.915,111.293 303.230,111.293 304.000 M274.101 304.200 C 274.105 305.080,274.187 305.393,274.283 304.895 C 274.379 304.398,274.375 303.678,274.275 303.295 C 274.175 302.913,274.096 303.320,274.101 304.200 M256.114 312.200 C 256.117 313.300,256.195 313.703,256.287 313.095 C 256.379 312.486,256.377 311.586,256.282 311.095 C 256.187 310.603,256.111 311.100,256.114 312.200 " stroke="none" fill="#f4b729" fill-rule="evenodd" />

    <path id="green-shapes" d="M240.770 92.283 C 240.456 92.328,236.400 92.420,231.756 92.487 C 225.680 92.574,223.141 92.751,222.702 93.116 C 222.201 93.531,218.810 94.460,216.000 94.952 C 215.670 95.009,215.130 95.165,214.800 95.297 C 214.470 95.430,213.210 95.845,212.000 96.220 C 210.790 96.596,209.530 97.125,209.200 97.396 C 208.870 97.668,208.000 98.003,207.268 98.142 C 206.535 98.280,205.473 98.757,204.907 99.201 C 204.342 99.646,203.180 100.122,202.325 100.258 C 201.437 100.400,200.607 100.813,200.389 101.221 C 200.179 101.614,199.420 102.063,198.703 102.219 C 197.454 102.491,197.111 102.732,194.754 104.996 C 194.179 105.548,193.549 106.000,193.354 106.001 C 193.159 106.001,192.010 106.724,190.800 107.606 C 189.590 108.489,188.105 109.524,187.499 109.906 C 186.893 110.287,186.296 110.915,186.172 111.300 C 186.048 111.685,185.684 112.000,185.364 112.000 C 185.045 112.000,184.579 112.447,184.331 112.992 C 184.082 113.538,183.546 114.090,183.139 114.219 C 182.733 114.348,182.400 114.630,182.400 114.846 C 182.400 115.062,181.993 115.635,181.495 116.119 C 180.066 117.510,177.600 120.693,177.600 121.147 C 177.600 121.374,177.349 121.704,177.043 121.880 C 175.681 122.662,174.547 126.937,175.419 128.000 C 175.689 128.330,176.037 129.194,176.191 129.919 C 176.346 130.645,176.816 131.453,177.236 131.715 C 177.656 131.978,178.000 132.514,178.000 132.906 C 178.000 133.299,178.425 133.782,178.945 133.979 C 179.465 134.177,179.988 134.712,180.108 135.169 C 180.235 135.657,180.652 136.000,181.116 136.000 C 181.570 136.000,181.996 136.340,182.115 136.798 C 182.230 137.237,182.656 137.716,183.062 137.863 C 183.468 138.010,184.070 138.367,184.400 138.657 C 184.730 138.948,185.540 139.662,186.200 140.245 C 186.860 140.829,187.985 141.555,188.700 141.858 C 189.415 142.162,190.000 142.661,190.000 142.966 C 190.000 143.272,190.540 143.710,191.200 143.940 C 191.860 144.170,192.400 144.558,192.400 144.802 C 192.400 145.045,193.210 145.603,194.200 146.041 C 195.190 146.479,196.000 147.099,196.000 147.419 C 196.000 147.738,196.364 148.000,196.810 148.000 C 197.306 148.000,197.767 148.388,198.000 149.000 C 198.209 149.550,198.659 150.000,199.000 150.000 C 199.341 150.000,199.791 150.450,200.000 151.000 C 200.209 151.550,200.634 152.000,200.944 152.000 C 201.254 152.000,201.803 152.450,202.163 153.000 C 202.524 153.550,203.072 154.000,203.382 154.000 C 203.692 154.000,204.060 154.360,204.200 154.800 C 204.340 155.240,204.626 155.600,204.836 155.600 C 205.047 155.600,206.390 156.815,207.822 158.300 C 211.722 162.345,212.000 162.657,212.000 163.000 C 212.000 163.302,212.314 163.670,214.595 166.045 C 215.146 166.620,215.712 167.661,215.852 168.359 C 215.991 169.057,216.420 169.849,216.805 170.118 C 217.209 170.402,217.706 171.616,217.986 173.004 C 218.251 174.322,218.765 175.631,219.129 175.913 C 220.822 177.229,220.747 198.070,219.041 199.954 C 218.704 200.327,218.229 201.557,217.987 202.686 C 217.745 203.815,217.210 205.127,216.798 205.602 C 216.386 206.077,215.936 206.979,215.799 207.605 C 215.661 208.232,215.291 208.959,214.976 209.220 C 214.661 209.481,213.840 210.840,213.151 212.239 C 211.288 216.023,200.360 226.961,197.600 227.805 C 197.050 227.974,196.199 228.491,195.710 228.956 C 195.220 229.420,194.428 230.142,193.949 230.561 C 191.813 232.427,191.080 232.400,243.776 232.398 C 291.707 232.396,296.000 232.296,296.000 231.187 C 296.000 230.980,296.802 230.610,297.782 230.363 C 298.885 230.085,299.803 229.549,300.191 228.957 C 300.536 228.431,301.084 228.000,301.409 228.000 C 301.734 228.000,302.000 227.734,302.000 227.409 C 302.000 227.084,302.452 226.522,303.005 226.160 C 303.557 225.798,304.120 225.029,304.256 224.451 C 304.392 223.873,304.850 222.822,305.274 222.116 C 306.662 219.806,306.799 214.927,306.730 170.400 C 306.645 116.217,306.729 118.758,304.963 117.043 C 304.213 116.315,303.600 115.519,303.600 115.274 C 303.600 115.029,303.252 114.642,302.827 114.414 C 302.402 114.187,301.949 113.668,301.819 113.261 C 301.690 112.854,301.178 112.336,300.682 112.110 C 299.718 111.671,298.066 110.371,296.603 108.900 C 296.111 108.405,295.510 108.000,295.268 108.000 C 295.026 108.000,294.637 107.642,294.403 107.205 C 294.168 106.767,293.527 106.297,292.978 106.159 C 292.428 106.021,291.801 105.576,291.585 105.171 C 291.368 104.766,290.539 104.312,289.744 104.163 C 288.830 103.992,288.227 103.623,288.106 103.164 C 287.974 102.657,287.380 102.356,286.147 102.171 C 285.035 102.004,284.231 101.633,283.984 101.170 C 283.764 100.760,282.929 100.316,282.095 100.167 C 281.273 100.019,280.330 99.696,280.000 99.449 C 278.697 98.473,277.561 98.000,276.505 97.991 C 275.897 97.986,274.590 97.603,273.600 97.140 C 271.868 96.329,268.681 95.416,263.231 94.171 C 261.818 93.848,260.411 93.375,260.104 93.120 C 259.784 92.855,257.724 92.601,255.273 92.525 C 248.309 92.310,241.380 92.194,240.770 92.283 " stroke="none" fill="#169b3b" fill-rule="evenodd" />
  </g>
</svg>
